<svg width="32" height="32" viewBox="0 0 32 32" fill="none" xmlns="http://www.w3.org/2000/svg">
<mask id="path-1-outside-1_121_15611" maskUnits="userSpaceOnUse" x="1" y="3" width="29" height="25" fill="black">
<rect fill="white" x="1" y="3" width="29" height="25"/>
<path fill-rule="evenodd" clip-rule="evenodd" d="M4.44975 19.632C2.12735 13.5276 9.24982 6.69974 15.4812 6.06673C28.6128 4.73277 33.4244 23.8789 20 20.4891V24C20 25.1046 19.1046 26 18 26H14C12.8954 26 12 25.1046 12 24V20.9296C11.7935 20.9944 11.5891 21.0595 11.3871 21.1238C8.26077 22.12 5.70598 22.934 4.44975 19.632Z"/>
</mask>
<path d="M15.4812 6.06673L15.2791 4.07697L15.4812 6.06673ZM4.44975 19.632L2.58046 20.3432L2.58046 20.3432L4.44975 19.632ZM20 20.4891L20.4897 18.5499L18 17.9212V20.4891H20ZM12 20.9296H14V18.2058L11.4012 19.0213L12 20.9296ZM11.3871 21.1238L11.9943 23.0294L11.9943 23.0294L11.3871 21.1238ZM15.2791 4.07697C11.5883 4.4519 7.81064 6.60697 5.26396 9.46778C2.72531 12.3196 1.05153 16.3244 2.58046 20.3432L6.31904 18.9208C5.52557 16.8352 6.25183 14.3739 8.25166 12.1274C10.2435 9.88994 13.1427 8.31458 15.6833 8.05649L15.2791 4.07697ZM19.5103 22.4282C23.2092 23.3622 26.3147 22.8986 28.2545 20.855C30.1484 18.8599 30.3155 15.9939 29.626 13.5133C28.2378 8.51877 22.9518 3.29754 15.2791 4.07697L15.6833 8.05649C21.1422 7.50196 24.8278 11.1868 25.7721 14.5845C26.2489 16.2999 25.9226 17.5015 25.3534 18.1012C24.8302 18.6524 23.503 19.3108 20.4897 18.5499L19.5103 22.4282ZM18 20.4891V24H22V20.4891H18ZM18 24V28C20.2091 28 22 26.2091 22 24H18ZM18 24H14V28H18V24ZM14 24H10C10 26.2091 11.7909 28 14 28V24ZM14 24V20.9296H10V24H14ZM11.9943 23.0294C12.1969 22.9649 12.3971 22.9011 12.5988 22.8378L11.4012 19.0213C11.1898 19.0876 10.9813 19.1541 10.78 19.2182L11.9943 23.0294ZM2.58046 20.3432C2.98187 21.3983 3.55481 22.3033 4.37373 22.9592C5.2115 23.6302 6.15474 23.919 7.07469 23.9846C8.73006 24.1028 10.5669 23.4843 11.9943 23.0294L10.78 19.2182C9.08101 19.7596 8.07727 20.0461 7.35959 19.9948C7.09302 19.9758 6.96662 19.9111 6.87435 19.8372C6.76324 19.7482 6.54573 19.5167 6.31904 18.9208L2.58046 20.3432Z" fill="black" mask="url(#path-1-outside-1_121_15611)"/>
<path d="M12 20C12 18.8954 12.8954 18 14 18H18C19.1046 18 20 18.8954 20 20V24C20 25.1046 19.1046 26 18 26H14C12.8954 26 12 25.1046 12 24V20Z" fill="#FFAF83"/>
<path d="M13 22.25C13 21.5596 13.7835 21 14.75 21H18.25C19.2165 21 20 21.5596 20 22.25V24.75C20 25.4404 19.2165 26 18.25 26H14.75C13.7835 26 13 25.4404 13 24.75V22.25Z" fill="#FFF3D3"/>
<path d="M13 24C13 22.8954 13.8954 22 15 22C16.1046 22 17 22.8954 17 24C17 25.1046 16.1046 26 15 26C13.8954 26 13 25.1046 13 24Z" fill="#D08138"/>
<path fill-rule="evenodd" clip-rule="evenodd" d="M15 22C13.8954 22 13 22.8954 13 24C13 24.8111 13.4828 25.5094 14.1768 25.8232C14.0632 25.5722 14 25.2935 14 25C14 23.8954 14.8954 23 16 23C16.2935 23 16.5722 23.0632 16.8232 23.1768C16.5094 22.4828 15.8111 22 15 22Z" fill="#9B4A00"/>
<path d="M15.4812 6.06673C9.24982 6.69974 2.12735 13.5276 4.44975 19.632C6.6743 25.4792 12.9708 18.4195 19.3025 20.2973C33.5849 24.533 28.8351 4.71019 15.4812 6.06673Z" fill="#FF4B4B"/>
<mask id="mask0_121_15611" style="mask-type:alpha" maskUnits="userSpaceOnUse" x="4" y="6" width="24" height="16">
<path d="M15.4812 6.06673C9.24982 6.69974 2.12735 13.5276 4.44975 19.632C6.6743 25.4792 12.9708 18.4195 19.3025 20.2973C33.5849 24.533 28.8351 4.71019 15.4812 6.06673Z" fill="#FF4B4B"/>
</mask>
<g mask="url(#mask0_121_15611)">
<path d="M11 12C11 13.6569 9.65685 15 8 15C6.34315 15 5 13.6569 5 12C5 10.3431 6.34315 9 8 9C9.65685 9 11 10.3431 11 12Z" fill="#DAF4FF"/>
<path d="M23 14C23 15.6569 21.6569 17 20 17C18.3431 17 17 15.6569 17 14C17 12.3431 18.3431 11 20 11C21.6569 11 23 12.3431 23 14Z" fill="#DAF4FF"/>
<path d="M15 20C15 21.6569 13.6569 23 12 23C10.3431 23 9 21.6569 9 20C9 18.3431 10.3431 17 12 17C13.6569 17 15 18.3431 15 20Z" fill="#DAF4FF"/>
<path d="M31 19C31 20.6569 29.6569 22 28 22C26.3431 22 25 20.6569 25 19C25 17.3431 26.3431 16 28 16C29.6569 16 31 17.3431 31 19Z" fill="#DAF4FF"/>
<path d="M18 6C18 7.65685 16.6569 9 15 9C13.3431 9 12 7.65685 12 6C12 4.34315 13.3431 3 15 3C16.6569 3 18 4.34315 18 6Z" fill="#DAF4FF"/>
</g>
<path fill-rule="evenodd" clip-rule="evenodd" d="M4.44975 19.632C2.12735 13.5276 9.24982 6.69974 15.4812 6.06673C20.1008 5.59745 23.6908 7.66279 25.8193 10.3899C23.7087 8.74359 20.8724 7.72224 17.4812 8.06673C11.2498 8.69974 4.12735 15.5276 6.44975 21.632C6.48147 21.7154 6.51403 21.7962 6.5474 21.8744C5.66978 21.6218 4.95481 20.9596 4.44975 19.632Z" fill="white" fill-opacity="0.64"/>
<path fill-rule="evenodd" clip-rule="evenodd" d="M6.849 21.9443C7.19387 21.7394 7.5459 21.5256 7.90369 21.3083C10.9079 19.4835 14.3179 17.4122 17.3025 18.2974C26.6441 21.0678 27.8437 13.546 23.8193 8.38989C30.0201 13.2265 29.958 23.4574 19.3025 20.2973C16.5464 19.48 13.797 20.356 11.3871 21.1239C9.6588 21.6746 8.10514 22.1696 6.849 21.9443Z" fill="#840000" fill-opacity="0.64"/>
</svg>
