<svg width="32" height="32" viewBox="0 0 32 32" fill="none" xmlns="http://www.w3.org/2000/svg">
<g clip-path="url(#clip0_114_5379)">
<path d="M14.0119 6.63881C13.8732 5.22597 14.9625 4 16.3566 4H27.6434C29.0375 4 30.1268 5.22596 29.9881 6.63881L28.103 25.8388C27.9826 27.0657 26.9689 28 25.7584 28H18.2416C17.0311 28 16.0174 27.0657 15.897 25.8388L14.0119 6.63881Z" fill="#3DA2FF"/>
<path d="M2.0118 14.7951C1.87455 13.2986 2.95231 12 4.33159 12L13.6684 12C15.0477 12 16.1254 13.2986 15.9882 14.7951L15.2888 24.7108C15.1696 26.0104 14.1667 27 12.969 27H5.031C3.83326 27 2.83039 26.0104 2.71121 24.7108L2.0118 14.7951Z" fill="#3DA2FF"/>
<mask id="path-3-outside-1_114_5379" maskUnits="userSpaceOnUse" x="-1.20978" y="2.14227" width="34" height="28" fill="black">
<rect fill="white" x="-1.20978" y="2.14227" width="34" height="28"/>
<path fill-rule="evenodd" clip-rule="evenodd" d="M16.2684 4.14227C14.8654 4.14227 13.7691 5.3537 13.9087 6.7498L14.493 12.5929C14.2344 12.4959 13.9538 12.4427 13.6597 12.4427H4.162C2.75894 12.4427 1.66261 13.6541 1.80222 15.0502L2.51369 24.3004C2.63492 25.5127 3.65507 26.436 4.87346 26.436H12.9482C14.1666 26.436 15.1868 25.5127 15.308 24.3004L15.4627 22.2898L15.8059 25.7221C15.9271 26.9345 16.9473 27.8577 18.1657 27.8577H25.7309C26.9493 27.8577 27.9695 26.9345 28.0907 25.7221L29.988 6.74979C30.1276 5.3537 29.0312 4.14227 27.6282 4.14227H16.2684Z"/>
</mask>
<path d="M13.9087 6.7498L15.8987 6.55079L15.8987 6.55079L13.9087 6.7498ZM14.493 12.5929L13.7906 14.4655L16.8032 15.5955L16.483 12.3939L14.493 12.5929ZM1.80222 15.0502L3.79633 14.8968L3.79458 14.874L3.7923 14.8512L1.80222 15.0502ZM2.51369 24.3004L0.519575 24.4538L0.521331 24.4766L0.523611 24.4994L2.51369 24.3004ZM15.308 24.3004L17.2981 24.4994L17.3004 24.4766L17.3021 24.4538L15.308 24.3004ZM15.4627 22.2898L17.4527 22.0908L13.4686 22.1364L15.4627 22.2898ZM15.8059 25.7221L13.8158 25.9211L13.8158 25.9211L15.8059 25.7221ZM28.0907 25.7221L26.1006 25.5231L26.1006 25.5231L28.0907 25.7221ZM29.988 6.74979L27.9979 6.55078L27.9979 6.55079L29.988 6.74979ZM15.8987 6.55079C15.8769 6.33206 16.0486 6.14227 16.2684 6.14227V2.14227C13.6821 2.14227 11.6612 4.37534 11.9186 6.9488L15.8987 6.55079ZM16.483 12.3939L15.8987 6.55079L11.9186 6.9488L12.5029 12.7919L16.483 12.3939ZM13.6597 14.4427C13.7106 14.4427 13.7535 14.4516 13.7906 14.4655L15.1954 10.7203C14.7153 10.5402 14.197 10.4427 13.6597 10.4427V14.4427ZM4.162 14.4427H13.6597V10.4427H4.162V14.4427ZM3.7923 14.8512C3.77042 14.6325 3.94219 14.4427 4.162 14.4427V10.4427C1.57569 10.4427 -0.445198 12.6758 -0.187852 15.2492L3.7923 14.8512ZM4.5078 24.147L3.79633 14.8968L-0.191888 15.2036L0.519575 24.4538L4.5078 24.147ZM4.87346 24.436C4.68258 24.436 4.52275 24.2913 4.50376 24.1014L0.523611 24.4994C0.747085 26.7342 2.62757 28.436 4.87346 28.436V24.436ZM12.9482 24.436H4.87346V28.436H12.9482V24.436ZM13.3179 24.1014C13.2989 24.2913 13.1391 24.436 12.9482 24.436V28.436C15.1941 28.436 17.0746 26.7342 17.2981 24.4994L13.3179 24.1014ZM13.4686 22.1364L13.3139 24.147L17.3021 24.4538L17.4568 22.4432L13.4686 22.1364ZM17.796 25.5231L17.4527 22.0908L13.4726 22.4888L13.8158 25.9211L17.796 25.5231ZM18.1657 25.8577C17.9748 25.8577 17.815 25.7131 17.796 25.5231L13.8158 25.9211C14.0393 28.1559 15.9198 29.8577 18.1657 29.8577V25.8577ZM25.7309 25.8577H18.1657V29.8577H25.7309V25.8577ZM26.1006 25.5231C26.0817 25.7131 25.9218 25.8577 25.7309 25.8577V29.8577C27.9768 29.8577 29.8573 28.1559 30.0808 25.9211L26.1006 25.5231ZM27.9979 6.55079L26.1006 25.5231L30.0808 25.9211L31.978 6.9488L27.9979 6.55079ZM27.6282 6.14227C27.848 6.14227 28.0198 6.33206 27.9979 6.55078L31.978 6.9488C32.2354 4.37533 30.2145 2.14227 27.6282 2.14227V6.14227ZM16.2684 6.14227H27.6282V2.14227H16.2684V6.14227Z" fill="black" mask="url(#path-3-outside-1_114_5379)"/>
<path fill-rule="evenodd" clip-rule="evenodd" d="M2.49554 24.0644L2.5137 24.3004C2.63493 25.5127 3.65509 26.436 4.87347 26.436H12.9483C14.1666 26.436 15.1868 25.5127 15.308 24.3004L16.0195 15.0502C16.1591 13.6542 15.0629 12.4428 13.66 12.4427C13.6599 12.5206 13.6559 12.5993 13.648 12.6786L12.9365 21.9288C12.8153 23.1412 11.7951 24.0644 10.5767 24.0644H2.50196C2.49982 24.0644 2.49768 24.0644 2.49554 24.0644Z" fill="#0065C0"/>
<path fill-rule="evenodd" clip-rule="evenodd" d="M15.7823 25.4861L15.8059 25.7221C15.9271 26.9345 16.9473 27.8577 18.1657 27.8577H25.7309C26.9493 27.8577 27.9695 26.9345 28.0907 25.7221L29.9879 6.74979C30.1276 5.3537 29.0312 4.14227 27.6282 4.14227H27.3796C27.3795 4.2202 27.3755 4.29892 27.3676 4.37823L25.4704 23.3506C25.3491 24.5629 24.329 25.4861 23.1106 25.4861H15.7823Z" fill="#0065C0"/>
<path fill-rule="evenodd" clip-rule="evenodd" d="M16.2684 4.14227C14.8654 4.14227 13.7691 5.3537 13.9087 6.7498L15.8059 25.7221C15.8926 26.5894 16.4393 27.3087 17.1896 27.6479C17.0862 27.4191 17.0179 27.1703 16.9917 26.9079L15.0945 7.93558C14.9548 6.53949 16.0512 5.32806 17.4542 5.32806H28.814C29.1631 5.32806 29.4932 5.40307 29.7901 5.53727C29.4197 4.71998 28.5971 4.14227 27.6282 4.14227H16.2684Z" fill="#CBE6FF"/>
<path d="M26.6914 11.2569C26.6914 13.8765 24.5678 16 21.9483 16C19.3288 16 17.2052 13.8765 17.2052 11.2569C17.2052 8.63741 19.3288 6.51385 21.9483 6.51385C24.5678 6.51385 26.6914 8.63741 26.6914 11.2569Z" fill="#244564"/>
<path fill-rule="evenodd" clip-rule="evenodd" d="M18.054 13.9653C18.8219 14.5004 19.7556 14.8142 20.7625 14.8142C23.382 14.8142 25.5056 12.6907 25.5056 10.0711C25.5056 9.06423 25.1918 8.13062 24.6568 7.36271C25.8866 8.21968 26.6913 9.64432 26.6913 11.2569C26.6913 13.8764 24.5678 16 21.9483 16C20.3356 16 18.911 15.1952 18.054 13.9653Z" fill="#000A13"/>
<path fill-rule="evenodd" clip-rule="evenodd" d="M25.8424 8.54833C25.0745 8.0133 24.141 7.69958 23.1341 7.69958C20.5146 7.69958 18.391 9.82313 18.391 12.4427C18.391 13.4496 18.7048 14.3833 19.24 15.1513C18.01 14.2943 17.2052 12.8696 17.2052 11.2569C17.2052 8.63741 19.3288 6.51385 21.9483 6.51385C23.5608 6.51385 24.9854 7.31857 25.8424 8.54833Z" fill="#487FB3"/>
<path d="M23.1341 11.2569C23.1341 11.9118 22.6032 12.4427 21.9483 12.4427C21.2934 12.4427 20.7625 11.9118 20.7625 11.2569C20.7625 10.6021 21.2934 10.0712 21.9483 10.0712C22.6032 10.0712 23.1341 10.6021 23.1341 11.2569Z" fill="#76AEE1"/>
<path d="M13.648 19.5573C13.648 22.1768 11.5244 24.3004 8.90489 24.3004C6.28536 24.3004 4.1618 22.1768 4.1618 19.5573C4.1618 16.9378 6.28536 14.8142 8.90489 14.8142C11.5244 14.8142 13.648 16.9378 13.648 19.5573Z" fill="#244564"/>
<path fill-rule="evenodd" clip-rule="evenodd" d="M5.01065 22.2658C5.77855 22.8008 6.71217 23.1146 7.71907 23.1146C10.3386 23.1146 12.4622 20.991 12.4622 18.3715C12.4622 17.3646 12.1484 16.4309 11.6133 15.663C12.8431 16.52 13.6479 17.9446 13.6479 19.5573C13.6479 22.1768 11.5244 24.3004 8.90486 24.3004C7.29226 24.3004 5.86762 23.4956 5.01065 22.2658Z" fill="#000A13"/>
<path fill-rule="evenodd" clip-rule="evenodd" d="M12.7992 16.849C12.0313 16.3138 11.0976 16 10.0906 16C7.47106 16 5.34751 18.1236 5.34751 20.7431C5.34751 21.7499 5.66124 22.6835 6.19628 23.4514C4.96652 22.5944 4.1618 21.1698 4.1618 19.5573C4.1618 16.9378 6.28536 14.8142 8.90489 14.8142C10.5176 14.8142 11.9423 15.619 12.7992 16.849Z" fill="#487FB3"/>
<path d="M10.0907 19.5573C10.0907 20.2122 9.55977 20.7431 8.90489 20.7431C8.25 20.7431 7.71912 20.2122 7.71912 19.5573C7.71912 18.9024 8.25 18.3715 8.90489 18.3715C9.55977 18.3715 10.0907 18.9024 10.0907 19.5573Z" fill="#76AEE1"/>
<path d="M25.5056 21.9289C25.5056 23.8935 23.913 25.4862 21.9483 25.4862C19.9837 25.4862 18.391 23.8935 18.391 21.9289C18.391 19.9642 19.9837 18.3716 21.9483 18.3716C23.913 18.3716 25.5056 19.9642 25.5056 21.9289Z" fill="#244564"/>
<path fill-rule="evenodd" clip-rule="evenodd" d="M19.0277 23.9604C19.6036 24.3616 20.3038 24.5969 21.0589 24.5969C23.0236 24.5969 24.6162 23.0043 24.6162 21.0396C24.6162 20.2844 24.3809 19.5841 23.9795 19.0081C24.902 19.6508 25.5056 20.7194 25.5056 21.9289C25.5056 23.8935 23.913 25.4862 21.9483 25.4862C20.7389 25.4862 19.6705 24.8827 19.0277 23.9604Z" fill="#000A13"/>
<path fill-rule="evenodd" clip-rule="evenodd" d="M24.8689 19.8974C24.293 19.4961 23.5928 19.2609 22.8377 19.2609C20.873 19.2609 19.2804 20.8535 19.2804 22.8182C19.2804 23.5734 19.5157 24.2737 19.9171 24.8497C18.9946 24.207 18.391 23.1384 18.391 21.9289C18.391 19.9642 19.9837 18.3716 21.9483 18.3716C23.1577 18.3716 24.2261 18.9751 24.8689 19.8974Z" fill="#487FB3"/>
<path d="M23.1341 21.9289C23.1341 22.5838 22.6032 23.1147 21.9483 23.1147C21.2935 23.1147 20.7626 22.5838 20.7626 21.9289C20.7626 21.2741 21.2935 20.7432 21.9483 20.7432C22.6032 20.7432 23.1341 21.2741 23.1341 21.9289Z" fill="#76AEE1"/>
<path fill-rule="evenodd" clip-rule="evenodd" d="M4.162 12.4427C2.75894 12.4427 1.66261 13.6541 1.80222 15.0502L2.51369 24.3004C2.60041 25.1676 3.14713 25.8869 3.89735 26.2262C3.79403 25.9973 3.7257 25.7485 3.69947 25.4862L2.98801 16.236C2.8484 14.8399 3.94472 13.6285 5.34778 13.6285H14.8455C15.1946 13.6285 15.5248 13.7035 15.8216 13.8377C15.4512 13.0204 14.6286 12.4427 13.6597 12.4427H4.162Z" fill="#CBE6FF"/>
</g>
<defs>
<clipPath id="clip0_114_5379">
<rect width="32" height="32" fill="white"/>
</clipPath>
</defs>
</svg>
