<svg width="32" height="32" viewBox="0 0 32 32" fill="none" xmlns="http://www.w3.org/2000/svg">
<path d="M12.4015 7.74902V10.8845H4.85036C2.76016 10.8845 1 12.525 1 14.6282V17.3718C1 19.475 2.76016 21.1155 4.85036 21.1155H12.4015V24.251C12.4015 27.5235 16.3182 29.1271 18.7581 27.0931L28.6559 18.8422C30.448 17.3483 30.448 14.6517 28.6559 13.1578L18.7581 4.90686C16.3182 2.87292 12.4015 4.47651 12.4015 7.74902Z" stroke="black" stroke-width="2"/>
<path d="M28.0156 13.926C29.3281 15.0201 29.3281 16.9799 28.0156 18.074L18.1178 26.325C16.2718 27.8639 13.4015 26.6017 13.4015 24.251L13.4015 7.74902C13.4015 5.39835 16.2718 4.1361 18.1178 5.67498L28.0156 13.926Z" fill="#00F7B3"/>
<path d="M2 14.6282C2 13.1129 3.27615 11.8845 4.85036 11.8845H16.2518C17.826 11.8845 19.1022 13.1129 19.1022 14.6282V17.3718C19.1022 18.8872 17.826 20.1155 16.2518 20.1155H4.85036C3.27615 20.1155 2 18.8871 2 17.3718V14.6282Z" fill="#00F7B3"/>
<path fill-rule="evenodd" clip-rule="evenodd" d="M2.07507 14H13C16.0196 14 15.6898 10.2785 15.5423 8.61468C15.5189 8.34993 15.5 8.13728 15.5 8C15.5 5.88463 22.958 10.4814 27.3564 13.3764L18.1178 5.67498C16.2718 4.1361 13.4015 5.39835 13.4015 7.74902V11.8845H4.85039C3.50071 11.8845 2.37013 12.7874 2.07507 14Z" fill="#EAFFF9"/>
<path fill-rule="evenodd" clip-rule="evenodd" d="M2 17V17.3718C2 18.8871 3.27615 20.1155 4.85036 20.1155H13.4015V24.251C13.4015 25.8897 14.7963 26.9994 16.2667 27C16.2675 27 16.2683 27 16.2691 27C16.9072 26.9997 17.5594 26.7906 18.1178 26.325L28.0156 18.074C28.6719 17.527 29 16.7635 29 16C29 16 19 23 17 23C15 23 15.5 20 15.5 20C15.5 20 15.5 17 13 17H2Z" fill="#00B482"/>
</svg>
