<svg width="32" height="32" viewBox="0 0 32 32" fill="none" xmlns="http://www.w3.org/2000/svg">
<mask id="path-1-outside-1_114_6050" maskUnits="userSpaceOnUse" x="5" y="2" width="23" height="28" fill="black">
<rect fill="white" x="5" y="2" width="23" height="28"/>
<path fill-rule="evenodd" clip-rule="evenodd" d="M9 4C7.89543 4 7 4.89543 7 6V26C7 27.1046 7.89543 28 9 28H10H21H23C24.1046 28 25 27.1046 25 26C25.5523 26 26 25.5523 26 25C26 24.4477 25.5523 24 25 24V20C25.5523 20 26 19.5523 26 19C26 18.4477 25.5523 18 25 18V14C25.5523 14 26 13.5523 26 13C26 12.4477 25.5523 12 25 12V8C25.5523 8 26 7.55228 26 7C26 6.44772 25.5523 6 25 6C25 4.89543 24.1046 4 23 4H21H10H9Z"/>
</mask>
<path d="M25 26V24H23V26H25ZM25 24H23V26H25V24ZM25 20V18H23V20H25ZM25 18H23V20H25V18ZM25 14V12H23V14H25ZM25 12H23V14H25V12ZM25 8V6H23V8H25ZM25 6H23V8H25V6ZM9 6V6V2C6.79086 2 5 3.79086 5 6H9ZM9 26V6H5V26H9ZM9 26H5C5 28.2091 6.79086 30 9 30V26ZM10 26H9V30H10V26ZM21 26H10V30H21V26ZM23 26H21V30H23V26ZM23 26V30C25.2091 30 27 28.2091 27 26H23ZM24 25C24 24.4477 24.4477 24 25 24V28C26.6569 28 28 26.6569 28 25H24ZM25 26C24.4477 26 24 25.5523 24 25H28C28 23.3431 26.6569 22 25 22V26ZM23 20V24H27V20H23ZM24 19C24 18.4477 24.4477 18 25 18V22C26.6569 22 28 20.6569 28 19H24ZM25 20C24.4477 20 24 19.5523 24 19H28C28 17.3431 26.6569 16 25 16V20ZM23 14V18H27V14H23ZM24 13C24 12.4477 24.4477 12 25 12V16C26.6569 16 28 14.6569 28 13H24ZM25 14C24.4477 14 24 13.5523 24 13H28C28 11.3431 26.6569 10 25 10V14ZM23 8V12H27V8H23ZM24 7C24 6.44771 24.4477 6 25 6V10C26.6569 10 28 8.65685 28 7H24ZM25 8C24.4477 8 24 7.55229 24 7H28C28 5.34315 26.6569 4 25 4V8ZM23 6H27C27 3.79086 25.2091 2 23 2V6ZM21 6H23V2H21V6ZM10 6H21V2H10V6ZM9 6H10V2H9V6Z" fill="black" mask="url(#path-1-outside-1_114_6050)"/>
<path d="M8 6C8 4.89543 8.89543 4 10 4H23C24.1046 4 25 4.89543 25 6V26C25 27.1046 24.1046 28 23 28H10C8.89543 28 8 27.1046 8 26V6Z" fill="#FFB800"/>
<path d="M8 6C8 4.89543 8.89543 4 10 4H23C24.1046 4 25 4.89543 25 6V26C25 27.1046 24.1046 28 23 28H10C8.89543 28 8 27.1046 8 26V6Z" fill="#FFB800"/>
<path d="M7 6C7 4.89543 7.89543 4 9 4H21C22.1046 4 23 4.89543 23 6V26C23 27.1046 22.1046 28 21 28H9C7.89543 28 7 27.1046 7 26V6Z" fill="#FFF2D2"/>
<path d="M9 8.5C9 8.22386 9.22386 8 9.5 8H17.5C17.7761 8 18 8.22386 18 8.5C18 8.77614 17.7761 9 17.5 9H9.5C9.22386 9 9 8.77614 9 8.5Z" fill="#CD925C"/>
<path d="M9 11.5C9 11.2239 9.22386 11 9.5 11H17.5C17.7761 11 18 11.2239 18 11.5C18 11.7761 17.7761 12 17.5 12H9.5C9.22386 12 9 11.7761 9 11.5Z" fill="#CD925C"/>
<path d="M9 14.5C9 14.2239 9.22386 14 9.5 14H17.5C17.7761 14 18 14.2239 18 14.5C18 14.7761 17.7761 15 17.5 15H9.5C9.22386 15 9 14.7761 9 14.5Z" fill="#CD925C"/>
<path d="M14 17.5C14 17.2239 14.2239 17 14.5 17H17.5C17.7761 17 18 17.2239 18 17.5C18 17.7761 17.7761 18 17.5 18H14.5C14.2239 18 14 17.7761 14 17.5Z" fill="#CD925C"/>
<path d="M20 7C20 6.44772 20.4477 6 21 6H24C24.5523 6 25 6.44772 25 7C25 7.55228 24.5523 8 24 8H21C20.4477 8 20 7.55228 20 7Z" fill="#002344"/>
<path d="M21 7C21 6.44772 21.4477 6 22 6H25C25.5523 6 26 6.44772 26 7C26 7.55228 25.5523 8 25 8H22C21.4477 8 21 7.55228 21 7Z" fill="#76AEE1"/>
<path d="M20 13C20 12.4477 20.4477 12 21 12H24C24.5523 12 25 12.4477 25 13C25 13.5523 24.5523 14 24 14H21C20.4477 14 20 13.5523 20 13Z" fill="#002344"/>
<path d="M21 13C21 12.4477 21.4477 12 22 12H25C25.5523 12 26 12.4477 26 13C26 13.5523 25.5523 14 25 14H22C21.4477 14 21 13.5523 21 13Z" fill="#76AEE1"/>
<path d="M20 19C20 18.4477 20.4477 18 21 18H24C24.5523 18 25 18.4477 25 19C25 19.5523 24.5523 20 24 20H21C20.4477 20 20 19.5523 20 19Z" fill="#002344"/>
<path d="M21 19C21 18.4477 21.4477 18 22 18H25C25.5523 18 26 18.4477 26 19C26 19.5523 25.5523 20 25 20H22C21.4477 20 21 19.5523 21 19Z" fill="#76AEE1"/>
<path d="M20 25C20 24.4477 20.4477 24 21 24H24C24.5523 24 25 24.4477 25 25C25 25.5523 24.5523 26 24 26H21C20.4477 26 20 25.5523 20 25Z" fill="#002344"/>
<path d="M21 25C21 24.4477 21.4477 24 22 24H25C25.5523 24 26 24.4477 26 25C26 25.5523 25.5523 26 25 26H22C21.4477 26 21 25.5523 21 25Z" fill="#76AEE1"/>
</svg>
