<svg width="32" height="32" viewBox="0 0 32 32" fill="none" xmlns="http://www.w3.org/2000/svg">
<path d="M26 14.2679C27.3333 15.0377 27.3333 16.9622 26 17.732L20 21.1961C18.6667 21.9659 17 21.0037 17 19.4641L17 12.5359C17 10.9963 18.6667 10.034 20 10.8038L26 14.2679Z" fill="#029F74"/>
<path d="M5.00193 20.0954C5.00193 19.9045 5.00617 19.5757 5.01465 19.1091L5.02738 18.3136C5.03162 18.1567 5.03374 18.0082 5.03374 17.8682C5.03374 17.7239 5.03162 17.586 5.02738 17.4545C5.02314 16.78 4.99981 16.1521 4.95738 15.5709C4.83859 14.0479 4.57344 12.633 4.16193 11.3264L6.14738 10.6964C6.60556 12.1388 6.89829 13.7021 7.02556 15.3864C7.07647 16.0227 7.10405 16.7015 7.10829 17.4227C7.11253 17.5627 7.11465 17.707 7.11465 17.8554C7.11465 18.0082 7.11253 18.1651 7.10829 18.3264C7.10829 18.4579 7.10617 18.6 7.10193 18.7527V18.95L7.09556 19.1473C7.08708 19.6054 7.08284 19.9215 7.08284 20.0954H5.00193Z" fill="#029F74"/>
<path d="M11.2789 17.3718C11.5546 17.3718 11.7879 17.2742 11.9789 17.0791C12.174 16.8839 12.2716 16.6506 12.2716 16.3791C12.2716 16.1033 12.174 15.87 11.9789 15.6791C11.7879 15.4839 11.5546 15.3864 11.2789 15.3864C11.0073 15.3864 10.774 15.4839 10.5789 15.6791C10.3837 15.87 10.2861 16.1033 10.2861 16.3791C10.2861 16.6506 10.3837 16.8839 10.5789 17.0791C10.774 17.2742 11.0073 17.3718 11.2789 17.3718ZM11.2789 13.2991C12.1189 13.2991 12.8443 13.6003 13.4552 14.2027C14.0576 14.8136 14.3589 15.5391 14.3589 16.3791C14.3589 17.2276 14.0576 17.953 13.4552 18.5554C12.8528 19.1579 12.1273 19.4591 11.2789 19.4591C10.4219 19.4591 9.69643 19.1579 9.10249 18.5554C8.50007 17.9615 8.19886 17.236 8.19886 16.3791C8.19886 15.5306 8.50007 14.8051 9.10249 14.2027C9.70492 13.6003 10.4304 13.2991 11.2789 13.2991Z" fill="#029F74"/>
</svg>
