<svg width="32" height="32" viewBox="0 0 32 32" fill="none" xmlns="http://www.w3.org/2000/svg">
<rect x="4" y="5" width="10" height="22" rx="5" fill="#FFA825" stroke="black" stroke-width="2"/>
<rect x="18" y="5" width="10" height="22" rx="5" fill="#FFA825" stroke="black" stroke-width="2"/>
<path fill-rule="evenodd" clip-rule="evenodd" d="M5.35352 23.6465C5.98115 25.0343 7.37781 26 9.00002 26C11.2092 26 13 24.2091 13 22V10C13 8.37781 12.0344 6.98115 10.6465 6.35352C10.8736 6.85566 11 7.41306 11 8V20C11 22.2091 9.20915 24 7.00001 24C6.41307 24 5.85566 23.8736 5.35352 23.6465Z" fill="#F15523"/>
<path fill-rule="evenodd" clip-rule="evenodd" d="M19.3535 23.6465C19.9811 25.0343 21.3778 26 23 26C25.2092 26 27 24.2091 27 22V10C27 8.37781 26.0344 6.98115 24.6465 6.35352C24.8736 6.85566 25 7.41306 25 8V20C25 22.2091 23.2091 24 21 24C20.4131 24 19.8557 23.8736 19.3535 23.6465Z" fill="#F15523"/>
<path fill-rule="evenodd" clip-rule="evenodd" d="M9 6C6.79086 6 5 7.79086 5 10V22C5 23.6222 5.96566 25.0189 7.35351 25.6465C7.12642 25.1444 7 24.5869 7 24V12C7 9.79086 8.79086 8 11 8C11.5869 8 12.1444 8.12642 12.6465 8.35351C12.0189 6.96566 10.6222 6 9 6Z" fill="#FFFDC9"/>
<path fill-rule="evenodd" clip-rule="evenodd" d="M23 6C20.7909 6 19 7.79086 19 10V22C19 23.6222 19.9657 25.0189 21.3535 25.6465C21.1264 25.1444 21 24.5869 21 24V12C21 9.79086 22.7909 8 25 8C25.5869 8 26.1444 8.12642 26.6465 8.35351C26.0189 6.96566 24.6222 6 23 6Z" fill="#FFFDC9"/>
</svg>
