<svg width="32" height="32" viewBox="0 0 32 32" fill="none" xmlns="http://www.w3.org/2000/svg">
<path d="M27.5 13.402C29.5 14.5567 29.5 17.4434 27.5 18.5981L11 28.1244C9 29.2791 6.5 27.8357 6.5 25.5263V6.47375C6.5 4.16435 9 2.72097 11 3.87567L27.5 13.402Z" fill="#FFA825" stroke="black" stroke-width="2"/>
<path fill-rule="evenodd" clip-rule="evenodd" d="M27.8622 15.2646C27.7066 15.6631 27.4192 16.0193 27 16.2613L12 22.232C10.6667 23.0018 9 22.0396 9 20.5L7.58555 5.88678C7.53014 6.07012 7.5 6.26671 7.5 6.47374V25.5263C7.5 27.0659 9.16667 28.0281 10.5 27.2583L27 17.7321C27.9142 17.2043 28.2015 16.1337 27.8622 15.2646Z" fill="#F15523"/>
<path fill-rule="evenodd" clip-rule="evenodd" d="M27 14.268C28.3333 15.0378 28.3333 16.9623 27 17.7321L26.9893 17.7383C27.0655 16.9983 26.7357 16.222 26 15.7972L9.5 6.27093C8.83729 5.88832 8.09222 5.9336 7.51039 6.26498C7.65269 4.84925 9.22802 4.00732 10.5 4.7417L27 14.268Z" fill="#FFFDC9"/>
</svg>
