<svg width="32" height="32" viewBox="0 0 32 32" fill="none" xmlns="http://www.w3.org/2000/svg">
<path d="M21 3.87567L4.5 13.402C2.5 14.5567 2.5 17.4434 4.5 18.5981L21 28.1244C23 29.2791 25.5 27.8357 25.5 25.5263V6.47375C25.5 4.16435 23 2.72097 21 3.87567Z" fill="#FFA825" stroke="black" stroke-width="2"/>
<path fill-rule="evenodd" clip-rule="evenodd" d="M4.13781 15.2646C4.29342 15.6631 4.58082 16.0193 5 16.2613L20 22.232C21.3333 23.0018 23 22.0396 23 20.5L24.4145 5.88678C24.4699 6.07012 24.5 6.26671 24.5 6.47374V25.5263C24.5 27.0659 22.8333 28.0281 21.5 27.2583L5 17.7321C4.08585 17.2043 3.79845 16.1337 4.13781 15.2646Z" fill="#F15523"/>
<path fill-rule="evenodd" clip-rule="evenodd" d="M5 14.268C3.66667 15.0378 3.66667 16.9623 5 17.7321L5.01073 17.7383C4.93452 16.9983 5.26427 16.222 6 15.7972L22.5 6.27093C23.1627 5.88832 23.9078 5.9336 24.4896 6.26498C24.3473 4.84925 22.772 4.00732 21.5 4.7417L5 14.268Z" fill="#FFFDC9"/>
</svg>
