<svg width="32" height="32" viewBox="0 0 32 32" fill="none" xmlns="http://www.w3.org/2000/svg">
<mask id="path-1-outside-1_117_9745" maskUnits="userSpaceOnUse" x="3" y="3" width="26" height="26" fill="black">
<rect fill="white" x="3" y="3" width="26" height="26"/>
<path fill-rule="evenodd" clip-rule="evenodd" d="M15 5C12.7909 5 11 6.79086 11 9V11H9C6.79086 11 5 12.7909 5 15V23C5 25.2091 6.79086 27 9 27H17C19.2091 27 21 25.2091 21 23V21H23C25.2091 21 27 19.2091 27 17V9C27 6.79086 25.2091 5 23 5H15Z"/>
</mask>
<path d="M11 11V13H13V11H11ZM21 21V19H19V21H21ZM13 9C13 7.89543 13.8954 7 15 7V3C11.6863 3 9 5.68629 9 9H13ZM13 11V9H9V11H13ZM9 13H11V9H9V13ZM7 15C7 13.8954 7.89543 13 9 13V9C5.68629 9 3 11.6863 3 15H7ZM7 23V15H3V23H7ZM9 25C7.89543 25 7 24.1046 7 23H3C3 26.3137 5.68629 29 9 29V25ZM17 25H9V29H17V25ZM19 23C19 24.1046 18.1046 25 17 25V29C20.3137 29 23 26.3137 23 23H19ZM19 21V23H23V21H19ZM23 19H21V23H23V19ZM25 17C25 18.1046 24.1046 19 23 19V23C26.3137 23 29 20.3137 29 17H25ZM25 9V17H29V9H25ZM23 7C24.1046 7 25 7.89543 25 9H29C29 5.68629 26.3137 3 23 3V7ZM15 7H23V3H15V7Z" fill="black" mask="url(#path-1-outside-1_117_9745)"/>
<path d="M11 9C11 6.79086 12.7909 5 15 5H23C25.2091 5 27 6.79086 27 9V17C27 19.2091 25.2091 21 23 21H15C12.7909 21 11 19.2091 11 17V9Z" fill="#00C992"/>
<path fill-rule="evenodd" clip-rule="evenodd" d="M26 11V17C26 18.6569 24.6569 20 23 20H17H16C14.3431 20 13 18.6569 13 17C13 19.2091 14.7909 21 17 21H23C25.2091 21 27 19.2091 27 17V11C27 8.79086 25.2091 7 23 7C24.6569 7 26 8.34315 26 10V11Z" fill="#027958"/>
<path fill-rule="evenodd" clip-rule="evenodd" d="M13 9V19H14V9C14 8.44772 14.4477 8 15 8H25V7H15C13.8954 7 13 7.89543 13 9Z" fill="#027958"/>
<path d="M14 9C14 8.44772 14.4477 8 15 8H25C25.5523 8 26 8.44772 26 9V13C26 13.5523 25.5523 14 25 14H15C14.4477 14 14 13.5523 14 13V9Z" fill="#55E9C0"/>
<path fill-rule="evenodd" clip-rule="evenodd" d="M23 7H15C13.8954 7 13 7.89543 13 9V17C13 18.1046 13.8954 19 15 19H23C24.1046 19 25 18.1046 25 17V9C25 7.89543 24.1046 7 23 7ZM15 6C13.3431 6 12 7.34315 12 9V17C12 18.6569 13.3431 20 15 20H23C24.6569 20 26 18.6569 26 17V9C26 7.34315 24.6569 6 23 6H15Z" fill="#FFEB34"/>
<path d="M5 15C5 12.7909 6.79086 11 9 11H17C19.2091 11 21 12.7909 21 15V23C21 25.2091 19.2091 27 17 27H9C6.79086 27 5 25.2091 5 23V15Z" fill="#00C992"/>
<path fill-rule="evenodd" clip-rule="evenodd" d="M20 17V23C20 24.6569 18.6569 26 17 26H11H10C8.34315 26 7 24.6569 7 23C7 25.2091 8.79086 27 11 27H17C19.2091 27 21 25.2091 21 23V17C21 14.7909 19.2091 13 17 13C18.6569 13 20 14.3431 20 16V17Z" fill="#027958"/>
<path fill-rule="evenodd" clip-rule="evenodd" d="M7 15V25H8V15C8 14.4477 8.44772 14 9 14H19V13H9C7.89543 13 7 13.8954 7 15Z" fill="#027958"/>
<path d="M8 15C8 14.4477 8.44772 14 9 14H19C19.5523 14 20 14.4477 20 15V19C20 19.5523 19.5523 20 19 20H9C8.44772 20 8 19.5523 8 19V15Z" fill="#55E9C0"/>
<path fill-rule="evenodd" clip-rule="evenodd" d="M17 13H9C7.89543 13 7 13.8954 7 15V23C7 24.1046 7.89543 25 9 25H17C18.1046 25 19 24.1046 19 23V15C19 13.8954 18.1046 13 17 13ZM9 12C7.34315 12 6 13.3431 6 15V23C6 24.6569 7.34315 26 9 26H17C18.6569 26 20 24.6569 20 23V15C20 13.3431 18.6569 12 17 12H9Z" fill="#FFEB34"/>
</svg>
