<svg width="32" height="32" viewBox="0 0 32 32" fill="none" xmlns="http://www.w3.org/2000/svg">
<path d="M6 17.732C4.66667 16.9622 4.66667 15.0377 6 14.2679L12 10.8038C13.3333 10.034 15 10.9963 15 12.5359L15 19.4641C15 21.0037 13.3333 21.9659 12 21.1961L6 17.732Z" fill="#029F74"/>
<path d="M19.0019 20.0954C19.0019 19.9045 19.0062 19.5757 19.0147 19.1091L19.0274 18.3136C19.0316 18.1567 19.0337 18.0082 19.0337 17.8682C19.0337 17.7239 19.0316 17.586 19.0274 17.4545C19.0231 16.78 18.9998 16.1521 18.9574 15.5709C18.8386 14.0479 18.5734 12.633 18.1619 11.3264L20.1474 10.6964C20.6056 12.1388 20.8983 13.7021 21.0256 15.3864C21.0765 16.0227 21.104 16.7015 21.1083 17.4227C21.1125 17.5627 21.1147 17.707 21.1147 17.8554C21.1147 18.0082 21.1125 18.1651 21.1083 18.3264C21.1083 18.4579 21.1062 18.6 21.1019 18.7527V18.95L21.0956 19.1473C21.0871 19.6054 21.0828 19.9215 21.0828 20.0954H19.0019Z" fill="#029F74"/>
<path d="M25.2789 17.3718C25.5546 17.3718 25.7879 17.2742 25.9789 17.0791C26.174 16.8839 26.2716 16.6506 26.2716 16.3791C26.2716 16.1033 26.174 15.87 25.9789 15.6791C25.7879 15.4839 25.5546 15.3864 25.2789 15.3864C25.0073 15.3864 24.774 15.4839 24.5789 15.6791C24.3837 15.87 24.2861 16.1033 24.2861 16.3791C24.2861 16.6506 24.3837 16.8839 24.5789 17.0791C24.774 17.2742 25.0073 17.3718 25.2789 17.3718ZM25.2789 13.2991C26.1189 13.2991 26.8443 13.6003 27.4552 14.2027C28.0576 14.8136 28.3589 15.5391 28.3589 16.3791C28.3589 17.2276 28.0576 17.953 27.4552 18.5554C26.8528 19.1579 26.1273 19.4591 25.2789 19.4591C24.4219 19.4591 23.6964 19.1579 23.1025 18.5554C22.5001 17.9615 22.1989 17.236 22.1989 16.3791C22.1989 15.5306 22.5001 14.8051 23.1025 14.2027C23.7049 13.6003 24.4304 13.2991 25.2789 13.2991Z" fill="#029F74"/>
</svg>
