<svg width="32" height="32" viewBox="0 0 32 32" fill="none" xmlns="http://www.w3.org/2000/svg">
<mask id="path-1-outside-1_107_921" maskUnits="userSpaceOnUse" x="0" y="0" width="32" height="32" fill="black">
<rect fill="white" width="32" height="32"/>
<path fill-rule="evenodd" clip-rule="evenodd" d="M24.1089 20.4688C25.3059 18.6021 26 16.3821 26 14C26 7.37258 20.6274 2 14 2C7.37258 2 2 7.37258 2 14C2 20.6274 7.37258 26 14 26C16.3821 26 18.6022 25.3059 20.4688 24.1089C20.6047 24.4369 20.806 24.7443 21.0727 25.011L24.559 28.4972C25.6465 29.5847 27.4097 29.5847 28.4973 28.4972C29.5848 27.4097 29.5848 25.6464 28.4973 24.5589L25.011 21.0727C24.7443 20.806 24.437 20.6047 24.1089 20.4688Z"/>
</mask>
<path d="M24.1089 20.4688L22.4253 19.3892L21.1349 21.4016L23.3435 22.3165L24.1089 20.4688ZM20.4688 24.1089L22.3166 23.3435L21.4017 21.1348L19.3892 22.4253L20.4688 24.1089ZM28.4973 28.4972L27.083 27.083L27.083 27.083L28.4973 28.4972ZM28.4973 24.5589L27.083 25.9731L27.083 25.9731L28.4973 24.5589ZM24 14C24 15.9881 23.4219 17.835 22.4253 19.3892L25.7925 21.5483C27.1899 19.3691 28 16.7761 28 14H24ZM14 4C19.5228 4 24 8.47715 24 14H28C28 6.26801 21.732 0 14 0V4ZM4 14C4 8.47715 8.47715 4 14 4V0C6.26801 0 0 6.26801 0 14H4ZM14 24C8.47715 24 4 19.5228 4 14H0C0 21.732 6.26801 28 14 28V24ZM19.3892 22.4253C17.8351 23.4219 15.9881 24 14 24V28C16.7762 28 19.3692 27.1899 21.5484 25.7925L19.3892 22.4253ZM22.4869 23.5967C22.4092 23.519 22.3537 23.4331 22.3166 23.3435L18.6211 24.8743C18.8557 25.4407 19.2029 25.9695 19.6585 26.4252L22.4869 23.5967ZM25.9732 27.083L22.4869 23.5967L19.6585 26.4252L23.1447 29.9114L25.9732 27.083ZM27.083 27.083C26.7766 27.3895 26.2797 27.3895 25.9732 27.083L23.1447 29.9114C25.0133 31.78 28.0429 31.78 29.9115 29.9114L27.083 27.083ZM27.083 25.9731C27.3895 26.2796 27.3895 26.7765 27.083 27.083L29.9115 29.9114C31.7801 28.0428 31.7801 25.0132 29.9115 23.1447L27.083 25.9731ZM23.5968 22.4869L27.083 25.9731L29.9115 23.1447L26.4252 19.6584L23.5968 22.4869ZM23.3435 22.3165C23.4332 22.3537 23.5191 22.4091 23.5968 22.4869L26.4252 19.6584C25.9696 19.2028 25.4408 18.8557 24.8744 18.621L23.3435 22.3165Z" fill="black" mask="url(#path-1-outside-1_107_921)"/>
<rect x="19.1036" y="23.0418" width="5.5696" height="10.4999" rx="2.7848" transform="rotate(-45 19.1036 23.0418)" fill="#C73000"/>
<path fill-rule="evenodd" clip-rule="evenodd" d="M21.0727 21.0727C19.9852 22.1602 19.9852 23.9234 21.0727 25.011L24.559 28.4972C25.6465 29.5847 27.4097 29.5847 28.4973 28.4972C29.5622 27.4323 29.5843 25.7194 28.5637 24.6276C28.5835 25.1643 28.3885 25.7075 27.9788 26.1172C27.1971 26.8989 25.9297 26.8989 25.1481 26.1172L24.4154 25.3845C23.6337 24.6028 23.6337 23.3355 24.4154 22.5538C24.8257 22.1434 25.3699 21.9485 25.9073 21.969L25.011 21.0727C23.9235 19.9851 22.1603 19.9851 21.0727 21.0727Z" fill="#781D00"/>
<circle cx="14" cy="14" r="12" fill="#FFEB34"/>
<path fill-rule="evenodd" clip-rule="evenodd" d="M12.9706 24.9706C19.598 24.9706 24.9706 19.598 24.9706 12.9706C24.9706 9.91136 23.8258 7.11948 21.9413 5C24.4133 7.19806 25.9706 10.4025 25.9706 13.9706C25.9706 20.598 20.598 25.9706 13.9706 25.9706C10.4025 25.9706 7.19806 24.4133 5 21.9413C7.11948 23.8258 9.91136 24.9706 12.9706 24.9706Z" fill="#FF7A00"/>
<path fill-rule="evenodd" clip-rule="evenodd" d="M15 3.00001C8.3726 3.00001 3.00001 8.3726 3.00001 15C3.00001 18.0593 4.14481 20.8512 6.02938 22.9706C3.55734 20.7726 2.00001 17.5682 2.00001 14C2.00001 7.3726 7.3726 2.00001 14 2.00001C17.5682 2.00001 20.7726 3.55734 22.9706 6.02938C20.8512 4.14481 18.0593 3.00001 15 3.00001Z" fill="white"/>
<circle cx="14.5" cy="14.5" r="8.5" fill="white"/>
<circle cx="13.5" cy="13.5" r="8.5" fill="#FF7A00"/>
<circle cx="14" cy="14" r="8" fill="#88DBFF"/>
<path fill-rule="evenodd" clip-rule="evenodd" d="M12 20C16.4183 20 20 16.4183 20 12C20 10.3017 19.4708 8.72697 18.5683 7.43176C20.6426 8.87718 22 11.2801 22 14C22 18.4183 18.4183 22 14 22C11.2801 22 8.87718 20.6426 7.43176 18.5683C8.72697 19.4708 10.3017 20 12 20Z" fill="#00AAE0"/>
<path d="M7 14C7 12.1435 7.7375 10.363 9.05025 9.05025C10.363 7.7375 12.1435 7 14 7V9.8C12.8861 9.8 11.8178 10.2425 11.0302 11.0302C10.2425 11.8178 9.8 12.8861 9.8 14H7Z" fill="white"/>
<path d="M9.05026 18.9497C8.1814 18.0809 7.55655 16.9986 7.23853 15.8117L9.94312 15.087C10.1339 15.7992 10.5088 16.4485 11.0302 16.9698L9.05026 18.9497Z" fill="white"/>
</svg>
