<svg width="32" height="32" viewBox="0 0 32 32" fill="none" xmlns="http://www.w3.org/2000/svg">
<path d="M21.996 24.614L23.1127 18.6584L28.9281 15.9037L29.0193 15.8605L29.1 15.8C29.6743 15.3693 30.159 14.8354 30.2931 14.1649C30.4423 13.4188 30.1055 12.8163 29.7071 12.4179C29.3266 12.0374 28.8179 11.7581 28.3314 11.5496C27.8339 11.3364 27.2842 11.1657 26.7541 11.0327L26.7506 11.0318L26.7077 11.02L26.5402 10.974L25.9044 10.7993C25.3563 10.6489 24.573 10.434 23.6313 10.1761C21.7481 9.66041 19.2318 8.97271 16.6996 8.28496C14.1679 7.59733 11.6186 6.90918 9.67028 6.39275C8.69661 6.13467 7.86994 5.91866 7.26957 5.76684C6.97012 5.69112 6.72201 5.63011 6.53823 5.58755C6.44713 5.56645 6.36496 5.54829 6.29722 5.53486C6.2957 5.53456 6.29375 5.53416 6.29139 5.53368C6.2556 5.52641 6.12551 5.5 6 5.5C5.98866 5.5 5.97666 5.49996 5.96404 5.49992C5.72653 5.49919 5.26839 5.49777 4.80279 5.73057C4.29195 5.98599 3.91217 6.43958 3.60557 7.05279L3.46706 7.32981L3.50938 7.63664L5.50155 22.0799C5.53619 22.9751 6.14646 23.8252 6.82357 24.3519C7.56091 24.9253 8.65514 25.3357 9.81623 24.9487L9.87352 24.9296L9.92809 24.9037L14.0931 22.9309L17.2366 26.6459L17.2635 26.6777L17.2929 26.7071C17.5598 26.974 17.8842 27.0708 18.1148 27.1076C18.3549 27.1459 18.5951 27.1362 18.8069 27.1091C19.2321 27.0546 19.6887 26.9104 20.1013 26.7229C20.5131 26.5357 20.9417 26.2778 21.2847 25.9568C21.583 25.6778 21.9539 25.2202 21.996 24.614Z" stroke="black" stroke-width="2"/>
<path d="M21 24.5L22.5 16.5L12.5 19.5L18 26C18.5 26.5 21 25.5 21 24.5Z" fill="#00B2D9"/>
<path d="M19 25V19.5H12.5L18 26C18.5 26.5 19 26 19 25Z" fill="#00BBE4"/>
<path d="M26.5 12C26.5 12 6.5 6.5 6 6.5C5.5 6.5 5 6.5 4.5 7.5L6.5 22C6.5 23 8.00003 24.5 9.5 24L28.5 15C30.5 13.5 28.5 12.5 26.5 12Z" fill="#74E6FF"/>
<path d="M6.99998 8.00003C6 7.50006 5.49998 8.50003 5.99998 9.00003L19 19.5L22 18L6.99998 8.00003Z" fill="#00B2D9"/>
</svg>
