<svg width="32" height="32" viewBox="0 0 32 32" fill="none" xmlns="http://www.w3.org/2000/svg">
<mask id="path-1-outside-1_503_5251" maskUnits="userSpaceOnUse" x="2" y="0" width="28" height="32" fill="black">
<rect fill="white" x="2" width="28" height="32"/>
<path fill-rule="evenodd" clip-rule="evenodd" d="M26 6L17.0796 6C16.8567 4.92051 16.5994 3.92051 16.3078 3L13 3.77217C13.1718 4.30356 13.3663 5.04617 13.5836 6L6 6C4.89543 6 4 6.89543 4 8V9V20V22C4 23.1046 4.89543 24 6 24L6 28L12 24H26C27.1046 24 28 23.1046 28 22V20V9V8C28 6.89543 27.1046 6 26 6Z"/>
</mask>
<path d="M17.0796 6L15.121 6.40458L15.4505 8L17.0796 8L17.0796 6ZM26 6L26 8H26V6ZM16.3078 3L18.2145 2.39609L17.6556 0.631611L15.8532 1.05236L16.3078 3ZM13 3.77217L12.5453 1.82454L10.4283 2.31873L11.0969 4.3873L13 3.77217ZM13.5836 6L13.5836 8L16.0906 8L15.5336 5.55571L13.5836 6ZM6 6L6 4H6V6ZM6 24L8 24L8 22H6V24ZM6 28L4 28L4 31.737L7.1094 29.6641L6 28ZM12 24V22H11.3944L10.8906 22.3359L12 24ZM17.0796 8L26 8L26 4L17.0796 4L17.0796 8ZM14.4012 3.60391C14.6693 4.45052 14.91 5.38317 15.121 6.40458L19.0383 5.59542C18.8033 4.45784 18.5294 3.39049 18.2145 2.39609L14.4012 3.60391ZM13.4547 5.71981L16.7625 4.94764L15.8532 1.05236L12.5453 1.82454L13.4547 5.71981ZM15.5336 5.55571C15.3114 4.58009 15.1016 3.77122 14.9031 3.15704L11.0969 4.3873C11.2419 4.83591 11.4212 5.51225 11.6336 6.44429L15.5336 5.55571ZM6 8L13.5836 8L13.5836 4L6 4L6 8ZM6 8V4C3.79086 4 2 5.79086 2 8H6ZM6 9V8H2V9H6ZM6 20V9H2V20H6ZM6 22V20H2V22H6ZM6 22H6H2C2 24.2091 3.79086 26 6 26V22ZM8 28L8 24L4 24L4 28L8 28ZM10.8906 22.3359L4.8906 26.3359L7.1094 29.6641L13.1094 25.6641L10.8906 22.3359ZM26 22H12V26H26V22ZM26 22V26C28.2091 26 30 24.2091 30 22H26ZM26 20V22H30V20H26ZM26 9V20H30V9H26ZM26 8V9H30V8H26ZM26 8H30C30 5.79086 28.2091 4 26 4V8Z" fill="black" mask="url(#path-1-outside-1_503_5251)"/>
<path d="M26 7C27.1046 7 28 7.89543 28 9L28 22C28 23.1046 27.1046 24 26 24L6 24C4.89543 24 4 23.1046 4 22L4 9C4 7.89543 4.89543 7 6 7L26 7Z" fill="#FFB800"/>
<path d="M26 7C27.1046 7 28 7.89543 28 9L28 22C28 23.1046 27.1046 24 26 24L6 24C4.89543 24 4 23.1046 4 22L4 9C4 7.89543 4.89543 7 6 7L26 7Z" fill="#FFB800"/>
<path d="M26 6C27.1046 6 28 6.89543 28 8L28 20C28 21.1046 27.1046 22 26 22L6 22C4.89543 22 4 21.1046 4 20L4 8C4 6.89543 4.89543 6 6 6L26 6Z" fill="#FFF2D2"/>
<path d="M14.8721 19.8749L14.8752 19.8779C15.3801 20.3656 15.999 20.613 16.7043 20.613C17.404 20.613 18.0166 20.3646 18.5142 19.8764C19.0183 19.3886 19.2809 18.7839 19.2809 18.0887C19.2809 17.3884 19.0197 16.7797 18.5142 16.2906C18.057 15.8419 17.5027 15.5958 16.873 15.5588L18.1509 15.3804L18.6008 15.3176L18.5813 14.8637C18.3715 9.9908 17.7766 5.98117 16.7845 2.84902L16.6448 2.4079L16.1942 2.51309L12.8863 3.28526L12.3571 3.40881L12.5242 3.92596C12.7388 4.58961 12.9954 5.61286 13.2937 7.00721C13.5897 8.39103 13.8379 9.85236 14.0381 11.3914L14.0386 11.395C14.2596 13.0043 14.3678 14.3151 14.3678 15.3339V15.9086L14.937 15.8291L15.7888 15.7102C15.4539 15.8323 15.1479 16.0256 14.8752 16.2891L14.8752 16.2891L14.8721 16.2921C14.3734 16.7822 14.1174 17.3905 14.1174 18.0887C14.1174 18.7818 14.3748 19.3861 14.8721 19.8749Z" fill="#FFA825" stroke="black"/>
<path d="M16.7043 16.0539C17.2748 16.0539 17.7617 16.2522 18.1652 16.6487C18.5757 17.0452 18.7809 17.5252 18.7809 18.0887C18.7809 18.6452 18.5757 19.1217 18.1652 19.5183C17.7617 19.9148 17.2748 20.113 16.7043 20.113C16.127 20.113 15.633 19.9148 15.2226 19.5183C14.8191 19.1217 14.6174 18.6452 14.6174 18.0887C14.6174 17.5252 14.8191 17.0452 15.2226 16.6487C15.633 16.2522 16.127 16.0539 16.7043 16.0539ZM14.8678 15.3339C14.8678 14.2835 14.7565 12.9478 14.5339 11.327C14.3322 9.77565 14.0817 8.30087 13.7826 6.90261C13.4835 5.50435 13.2226 4.46087 13 3.77217L16.3078 3C17.2817 6.07478 17.873 10.0365 18.0817 14.8852L14.8678 15.3339Z" fill="#FFA825"/>
<path fill-rule="evenodd" clip-rule="evenodd" d="M16.299 15.1341C16.112 15.0806 15.9138 15.0539 15.7044 15.0539C15.4026 15.0539 15.1236 15.1081 14.8674 15.2164C14.865 14.902 14.853 14.563 14.8314 14.1994L17.0818 13.8852C16.8983 9.62309 16.4192 6.0463 15.6445 3.15485L16.3078 3C17.2818 6.07478 17.8731 10.0365 18.0818 14.8852L16.299 15.1341ZM14.7924 18.917C15.0688 19.0477 15.3728 19.113 15.7044 19.113C16.2748 19.113 16.7618 18.9148 17.1652 18.5183C17.5757 18.1217 17.7809 17.6452 17.7809 17.0887C17.7809 16.7842 17.721 16.5042 17.6012 16.2485C17.8045 16.3455 17.9925 16.4789 18.1652 16.6487C18.5757 17.0452 18.7809 17.5252 18.7809 18.0887C18.7809 18.6452 18.5757 19.1217 18.1652 19.5183C17.7618 19.9148 17.2748 20.113 16.7044 20.113C16.127 20.113 15.6331 19.9148 15.2226 19.5183C15.0361 19.3349 14.8927 19.1345 14.7924 18.917Z" fill="#F15523"/>
<path fill-rule="evenodd" clip-rule="evenodd" d="M17.2012 16.1088C17.0433 16.0722 16.8777 16.0539 16.7043 16.0539C16.127 16.0539 15.633 16.2522 15.2226 16.6487C14.8191 17.0452 14.6174 17.5252 14.6174 18.0887C14.6174 18.6452 14.8191 19.1217 15.2226 19.5183C15.633 19.9148 16.127 20.113 16.7043 20.113C16.8777 20.113 17.0433 20.0947 17.2012 20.0581C16.8345 19.9743 16.5083 19.7943 16.2226 19.5183C15.8191 19.1217 15.6174 18.6452 15.6174 18.0887C15.6174 17.5252 15.8191 17.0452 16.2226 16.6487C16.5083 16.3727 16.8345 16.1927 17.2012 16.1088ZM14.5339 11.327C14.7565 12.9478 14.8678 14.2835 14.8678 15.3339L15.8672 15.1944C15.8579 14.1661 15.7468 12.8769 15.5339 11.327C15.3322 9.77565 15.0817 8.30087 14.7826 6.90261C14.4835 5.50435 14.2226 4.46087 14 3.77217L16.3757 3.2176C16.3533 3.14458 16.3306 3.07205 16.3078 3L13 3.77217C13.2226 4.46087 13.4835 5.50435 13.7826 6.90261C14.0817 8.30087 14.3322 9.77565 14.5339 11.327Z" fill="#FFFDC9"/>
<path d="M6 28V24H12L6 28Z" fill="#FFB800"/>
<path d="M6 26V22H12L6 26Z" fill="#FFF2D2"/>
</svg>
