<svg width="32" height="32" viewBox="0 0 32 32" fill="none" xmlns="http://www.w3.org/2000/svg">
<mask id="path-1-outside-1_114_3820" maskUnits="userSpaceOnUse" x="2" y="0" width="28" height="32" fill="black">
<rect fill="white" x="2" width="28" height="32"/>
<path fill-rule="evenodd" clip-rule="evenodd" d="M22 3.5C22 4.32843 21.3284 5 20.5 5C20.0796 5 19.6996 4.82707 19.4273 4.54847L18.6193 5.08714C19.4395 5.95433 20 7.00001 20 7.00001L24 7C26.2091 7 28 8.79086 28 11V23C28 25.2091 26.2091 27 24 27H23L24 30H23L21 27H11L9 30H8L9 27H8C5.79086 27 4 25.2091 4 23V11C4 8.79086 5.79086 7 8 7H12C12.0021 6.99602 12.562 5.95268 13.3807 5.08714L12.5727 4.54847C12.3004 4.82707 11.9204 5 11.5 5C10.6716 5 10 4.32843 10 3.5C10 2.67157 10.6716 2 11.5 2C12.3284 2 13 2.67157 13 3.5C13 3.65806 12.9756 3.81042 12.9302 3.95349L13.8996 4.59971C14.2433 4.31789 14.6155 4.09612 15 4C15.7577 3.81057 16.2423 3.81057 17 4C17.3845 4.09612 17.7567 4.31789 18.1004 4.59971L19.0698 3.95349C19.0244 3.81042 19 3.65806 19 3.5C19 2.67157 19.6716 2 20.5 2C21.3284 2 22 2.67157 22 3.5Z"/>
</mask>
<path d="M19.4273 4.54847L20.8575 3.15041L19.698 1.9643L18.3179 2.88437L19.4273 4.54847ZM18.6193 5.08714L17.5099 3.42304L15.5367 4.73853L17.1663 6.46146L18.6193 5.08714ZM20 7.00001L18.2372 7.94484L18.8028 9.00001L20 9.00001L20 7.00001ZM24 7V5L24 5L24 7ZM23 27V25H20.2251L21.1026 27.6325L23 27ZM24 30V32H26.7749L25.8974 29.3675L24 30ZM23 30L21.3359 31.1094L21.9296 32H23V30ZM21 27L22.6641 25.8906L22.0704 25H21V27ZM11 27V25H9.92963L9.3359 25.8906L11 27ZM9 30V32H10.0704L10.6641 31.1094L9 30ZM8 30L6.10263 29.3675L5.22515 32H8V30ZM9 27L10.8974 27.6325L11.7749 25H9V27ZM12 7V9H13.197L13.7626 7.94512L12 7ZM13.3807 5.08714L14.8337 6.46146L16.4633 4.73853L14.4901 3.42304L13.3807 5.08714ZM12.5727 4.54847L13.6821 2.88437L12.302 1.9643L11.1425 3.15041L12.5727 4.54847ZM12.9302 3.95349L11.0236 3.3495L10.5694 4.78331L11.8208 5.61759L12.9302 3.95349ZM13.8996 4.59971L12.7902 6.26381L14.0223 7.08523L15.1675 6.14642L13.8996 4.59971ZM18.1004 4.59971L16.8325 6.14642L17.9777 7.08523L19.2098 6.26381L18.1004 4.59971ZM19.0698 3.95349L20.1792 5.61759L21.4306 4.78331L20.9764 3.3495L19.0698 3.95349ZM20.5 7C22.433 7 24 5.433 24 3.5H20C20 3.22386 20.2239 3 20.5 3V7ZM17.9971 5.94654C18.6302 6.59421 19.5195 7 20.5 7V3C20.6397 3 20.769 3.05994 20.8575 3.15041L17.9971 5.94654ZM19.7287 6.75124L20.5367 6.21257L18.3179 2.88437L17.5099 3.42304L19.7287 6.75124ZM20 7.00001C21.7628 6.05518 21.7626 6.05495 21.7625 6.05471C21.7625 6.05463 21.7623 6.05439 21.7622 6.05422C21.7621 6.05388 21.7619 6.05353 21.7617 6.05316C21.7613 6.05242 21.7608 6.05162 21.7604 6.05075C21.7594 6.04902 21.7584 6.04702 21.7571 6.04477C21.7547 6.04027 21.7517 6.03474 21.7481 6.02823C21.741 6.01521 21.7317 5.99824 21.7201 5.97762C21.6971 5.93641 21.6653 5.88043 21.6253 5.8122C21.5456 5.67615 21.4321 5.48907 21.2894 5.2716C21.0098 4.84542 20.5921 4.2624 20.0723 3.71282L17.1663 6.46146C17.4667 6.77907 17.7394 7.15249 17.945 7.46595C18.045 7.6183 18.1229 7.74684 18.1739 7.83395C18.1993 7.8773 18.2177 7.90979 18.2285 7.92916C18.2339 7.93882 18.2374 7.94516 18.2389 7.94788C18.2396 7.94924 18.2399 7.94969 18.2396 7.9492C18.2395 7.94895 18.2392 7.94847 18.2388 7.94775C18.2386 7.94738 18.2384 7.94696 18.2381 7.94648C18.238 7.94624 18.2379 7.94598 18.2377 7.94571C18.2376 7.94557 18.2375 7.94536 18.2375 7.94529C18.2374 7.94507 18.2372 7.94484 20 7.00001ZM24 5L20 5.00001L20 9.00001L24 9L24 5ZM30 11C30 7.68629 27.3137 5 24 5V9C25.1046 9 26 9.89543 26 11H30ZM30 23V11H26V23H30ZM24 29C27.3137 29 30 26.3137 30 23H26C26 24.1046 25.1046 25 24 25V29ZM23 29H24V25H23V29ZM25.8974 29.3675L24.8974 26.3675L21.1026 27.6325L22.1026 30.6325L25.8974 29.3675ZM23 32H24V28H23V32ZM19.3359 28.1094L21.3359 31.1094L24.6641 28.8906L22.6641 25.8906L19.3359 28.1094ZM11 29H21V25H11V29ZM10.6641 31.1094L12.6641 28.1094L9.3359 25.8906L7.3359 28.8906L10.6641 31.1094ZM8 32H9V28H8V32ZM7.10263 26.3675L6.10263 29.3675L9.89737 30.6325L10.8974 27.6325L7.10263 26.3675ZM8 29H9V25H8V29ZM2 23C2 26.3137 4.68629 29 8 29V25C6.89543 25 6 24.1046 6 23H2ZM2 11V23H6V11H2ZM8 5C4.68629 5 2 7.68629 2 11H6C6 9.89543 6.89543 9 8 9V5ZM12 5H8V9H12V5ZM11.9277 3.71282C10.9194 4.77886 10.2582 6.01617 10.2374 6.05488L13.7626 7.94512C13.7461 7.97586 14.2047 7.1265 14.8337 6.46146L11.9277 3.71282ZM11.4633 6.21257L12.2713 6.75124L14.4901 3.42304L13.6821 2.88437L11.4633 6.21257ZM11.1425 3.15041C11.231 3.05994 11.3603 3 11.5 3V7C12.4805 7 13.3698 6.59421 14.0029 5.94654L11.1425 3.15041ZM11.5 3C11.7761 3 12 3.22386 12 3.5H8C8 5.433 9.567 7 11.5 7V3ZM12 3.5C12 3.77614 11.7761 4 11.5 4V0C9.567 0 8 1.567 8 3.5H12ZM11.5 4C11.2239 4 11 3.77614 11 3.5H15C15 1.567 13.433 0 11.5 0V4ZM11 3.5C11 3.45075 11.0078 3.39949 11.0236 3.3495L14.8369 4.55747C14.9433 4.22134 15 3.86538 15 3.5H11ZM15.009 2.93561L14.0396 2.28939L11.8208 5.61759L12.7902 6.26381L15.009 2.93561ZM14.5149 2.05971C13.7405 2.25332 13.1045 2.66538 12.6316 3.053L15.1675 6.14642C15.2669 6.06497 15.348 6.01076 15.4089 5.97684C15.4699 5.9428 15.4949 5.93784 15.4851 5.94029L14.5149 2.05971ZM17.4851 2.05971C16.4089 1.79066 15.5911 1.79066 14.5149 2.05971L15.4851 5.94029C15.9243 5.83047 16.0757 5.83047 16.5149 5.94029L17.4851 2.05971ZM19.3684 3.053C18.8955 2.66538 18.2595 2.25332 17.4851 2.05971L16.5149 5.94029C16.5051 5.93784 16.5301 5.9428 16.5911 5.97684C16.652 6.01076 16.7331 6.06497 16.8325 6.14642L19.3684 3.053ZM17.9604 2.28939L16.991 2.93561L19.2098 6.26381L20.1792 5.61759L17.9604 2.28939ZM17 3.5C17 3.86538 17.0567 4.22134 17.1631 4.55747L20.9764 3.3495C20.9922 3.39949 21 3.45075 21 3.5H17ZM20.5 0C18.567 0 17 1.567 17 3.5H21C21 3.77614 20.7761 4 20.5 4V0ZM24 3.5C24 1.567 22.433 0 20.5 0V4C20.2239 4 20 3.77614 20 3.5H24Z" fill="black" mask="url(#path-1-outside-1_114_3820)"/>
<path d="M4 11C4 8.79086 5.79086 7 8 7H24C26.2091 7 28 8.79086 28 11V23C28 25.2091 26.2091 27 24 27H8C5.79086 27 4 25.2091 4 23V11Z" fill="#FF6868"/>
<path d="M4 11C4 8.79086 5.79086 7 8 7H24C26.2091 7 28 8.79086 28 11V23C28 25.2091 26.2091 27 24 27H8C5.79086 27 4 25.2091 4 23V11Z" fill="#FF6868"/>
<path fill-rule="evenodd" clip-rule="evenodd" d="M4.00001 10.9901C4 10.9934 4 10.9967 4 11V23C4 25.2091 5.79086 27 8 27H24C26.2091 27 28 25.2091 28 23V11C28 8.79086 26.2091 7 24 7H8C7.997 7 7.994 7 7.99101 7.00001H24C25.6569 7.00001 27 8.34316 27 10V23C27 24.6569 25.6569 26 24 26H7.00001C5.34316 26 4.00001 24.6569 4.00001 23V10.9901Z" fill="#9F1B1B"/>
<path fill-rule="evenodd" clip-rule="evenodd" d="M8 7C5.79086 7 4 8.79086 4 11V23C4 25.2091 5.79086 27 8 27C6.34315 27 5 25.6569 5 24V11C5 9.34315 6.34315 8 8 8H25C26.6569 8 28 9.34315 28 11C28 8.79086 26.2091 7 24 7H8Z" fill="#FFC09C"/>
<path d="M6 11C6 9.89543 6.89543 9 8 9H24C25.1046 9 26 9.89543 26 11V23C26 24.1046 25.1046 25 24 25H8C6.89543 25 6 24.1046 6 23V11Z" fill="#002344"/>
<path d="M7 11C7 10.4477 7.44772 10 8 10H24C24.5523 10 25 10.4477 25 11V16C25 16.5523 24.5523 17 24 17H8C7.44772 17 7 16.5523 7 16V11Z" fill="#244564"/>
<path d="M7 11C7 10.4477 7.44772 10 8 10H12C12.5523 10 13 10.4477 13 11V18C13 18.5523 12.5523 19 12 19H8C7.44772 19 7 18.5523 7 18V11Z" fill="#FF6868" fill-opacity="0.32"/>
<path d="M20.7615 16.3175C22.3685 17.0134 22.3685 19.2923 20.7615 19.9882L15.7947 22.1389C14.4742 22.7107 13 21.7426 13 20.3035L13 16.0022C13 14.5631 14.4742 13.595 15.7947 14.1669L20.7615 16.3175Z" fill="#000A13"/>
<path d="M19.7615 15.1647C21.3685 15.8606 21.3685 18.1395 19.7615 18.8354L14.7947 20.986C13.4742 21.5579 12 20.5898 12 19.1507L12 14.8493C12 13.4103 13.4742 12.4422 14.7947 13.014L19.7615 15.1647Z" fill="#FF6868"/>
<path fill-rule="evenodd" clip-rule="evenodd" d="M19.7953 15.1797C20.2127 16.1264 19.8681 17.3562 18.7615 17.8354L13.7947 19.9861C13.2417 20.2255 12.6617 20.1949 12.1743 19.9727C12.6024 20.924 13.7469 21.4398 14.7947 20.9861L19.7615 18.8354C21.3572 18.1444 21.3684 15.8927 19.7953 15.1797Z" fill="#9F1B1B"/>
<path fill-rule="evenodd" clip-rule="evenodd" d="M20.8666 16.3664C20.7018 15.8605 20.3334 15.4123 19.7615 15.1647L14.7947 13.014C13.4742 12.4422 12 13.4103 12 14.8493V19.1507C12 19.9566 12.4623 20.6148 13.1011 20.9376C13.0358 20.7403 13 20.5276 13 20.3035L13 16.0022C13 14.5631 14.4742 13.595 15.7947 14.1669L20.7615 16.3175C20.7973 16.3331 20.8324 16.3494 20.8666 16.3664Z" fill="#FFC09C"/>
<path d="M20.5 3L17.5 5L18 5.5L21 3.5L20.5 3Z" fill="#002344"/>
<path d="M20.5 3L17.5 5L18 5.5L21 3.5L20.5 3Z" fill="#002344"/>
<path d="M11.5 3L14.5 5L14 5.5L11 3.5L11.5 3Z" fill="#002344"/>
<path d="M11.5 3L14.5 5L14 5.5L11 3.5L11.5 3Z" fill="#002344"/>
<path d="M15 4C15.7577 3.81057 16.2423 3.81057 17 4C18.6074 4.40185 20 7.00001 20 7.00001H12C12 7.00001 13.3926 4.40185 15 4Z" fill="#76AEE1"/>
<path d="M15 4C15.7577 3.81057 16.2423 3.81057 17 4C18.6074 4.40185 20 7.00001 20 7.00001H12C12 7.00001 13.3926 4.40185 15 4Z" fill="#76AEE1"/>
<path fill-rule="evenodd" clip-rule="evenodd" d="M17 3.99998C16.2423 3.81055 15.7577 3.81055 15 3.99998C13.3926 4.40183 12 7 12 7H13.6355C14.1931 6.22155 15.0598 5.23504 16 4.99998C16.7577 4.81055 17.2423 4.81055 18 4.99998C18.3454 5.08634 18.6809 5.27413 18.9948 5.51576C18.4574 4.85708 17.7522 4.18804 17 3.99998Z" fill="#B9DDFF"/>
<path d="M8 30L9 27H11L9 30H8Z" fill="#CC7358"/>
<path d="M8 30L9 27H11L9 30H8Z" fill="#CC7358"/>
<path d="M8 30L9 27H11L9.5 27.5L8 30Z" fill="#691900"/>
<path d="M24 30L23 27H21L23 30H24Z" fill="#CC7358"/>
<path d="M24 30L23 27H21L23 30H24Z" fill="#CC7358"/>
<circle cx="20.5" cy="3.5" r="1.5" fill="#76AEE1"/>
<circle cx="20.5" cy="3.5" r="1.5" fill="#76AEE1"/>
<path d="M23 30L21 27H23L22 27.5L23 30Z" fill="#691900"/>
<circle cx="11.5" cy="3.5" r="1.5" fill="#76AEE1"/>
<circle cx="11.5" cy="3.5" r="1.5" fill="#76AEE1"/>
<path fill-rule="evenodd" clip-rule="evenodd" d="M21.9357 3.06427C21.7978 3.02247 21.6515 3 21.5 3C20.6716 3 20 3.67157 20 4.5C20 4.65154 20.0225 4.79784 20.0643 4.93573C19.4483 4.74905 19 4.17688 19 3.5C19 2.67157 19.6716 2 20.5 2C21.1769 2 21.7491 2.44835 21.9357 3.06427Z" fill="#B9DDFF"/>
<path fill-rule="evenodd" clip-rule="evenodd" d="M12.9357 3.06427C12.7978 3.02247 12.6515 3 12.5 3C11.6716 3 11 3.67157 11 4.5C11 4.65154 11.0225 4.79784 11.0643 4.93573C10.4483 4.74905 10 4.17688 10 3.5C10 2.67157 10.6716 2 11.5 2C12.1769 2 12.7491 2.44835 12.9357 3.06427Z" fill="#B9DDFF"/>
</svg>
