<svg width="256" height="256" viewBox="0 0 256 256" fill="none" xmlns="http://www.w3.org/2000/svg">
<path d="M90.0833 123.125L100.917 112.292L130.708 142.083L149.667 123.125L165.917 139.375V90.0833H90.0833V123.125ZM84.6667 79.25H171.333C172.77 79.25 174.148 79.8207 175.163 80.8365C176.179 81.8523 176.75 83.2301 176.75 84.6667V171.333C176.75 172.77 176.179 174.148 175.163 175.163C174.148 176.179 172.77 176.75 171.333 176.75H84.6667C83.2301 176.75 81.8523 176.179 80.8365 175.163C79.8207 174.148 79.25 172.77 79.25 171.333V84.6667C79.25 83.2301 79.8207 81.8523 80.8365 80.8365C81.8523 79.8207 83.2301 79.25 84.6667 79.25V79.25ZM146.958 117.167C144.803 117.167 142.737 116.311 141.213 114.787C139.689 113.263 138.833 111.197 138.833 109.042C138.833 106.887 139.689 104.82 141.213 103.296C142.737 101.773 144.803 100.917 146.958 100.917C149.113 100.917 151.18 101.773 152.704 103.296C154.227 104.82 155.083 106.887 155.083 109.042C155.083 111.197 154.227 113.263 152.704 114.787C151.18 116.311 149.113 117.167 146.958 117.167V117.167Z" fill="white" fill-opacity="0.24"/>
</svg>
